<!-- Diamond Icon -->
<svg xmlns="http://www.w3.org/2000/svg" style="display: none;">
    <symbol id="x-diamond" viewBox="0 0 16 16">
        <path d="M7.987 16a1.53 1.53 0 0 1-1.07-.448L.45 9.082a1.53 1.53 0 0 1 0-2.165L6.917.45a1.53 1.53 0 0 1 2.166 0l6.469 6.468A1.53 1.53 0 0 1 16 8.013a1.53 1.53 0 0 1-.448 1.07l-6.47 6.469A1.53 1.53 0 0 1 7.988 16zM7.639 1.17 4.766 4.044 8 7.278l3.234-3.234L8.361 1.17a.51.51 0 0 0-.722 0M8.722 8l3.234 3.234 2.873-2.873c.2-.2.2-.523 0-.722l-2.873-2.873zM8 8.722l-3.234 3.234 2.873 2.873c.2.2.523.2.722 0l2.873-2.873zM7.278 8 4.044 4.766 1.17 7.639a.51.51 0 0 0 0 .722l2.874 2.873z"/>
    </symbol>

    <symbol id="x-gift" viewBox="0 0 16 16">
        <path d="M3 2.5a2.5 2.5 0 0 1 5 0 2.5 2.5 0 0 1 5 0v.006c0 .07 0 .27-.038.494H15a1 1 0 0 1 1 1v2a1 1 0 0 1-1 1v7.5a1.5 1.5 0 0 1-1.5 1.5h-11A1.5 1.5 0 0 1 1 14.5V7a1 1 0 0 1-1-1V4a1 1 0 0 1 1-1h2.038A3 3 0 0 1 3 2.506zm1.068.5H7v-.5a1.5 1.5 0 1 0-3 0c0 .085.002.274.045.43zM9 3h2.932l.023-.07c.043-.156.045-.345.045-.43a1.5 1.5 0 0 0-3 0zM1 4v2h6V4zm8 0v2h6V4zm5 3H9v8h4.5a.5.5 0 0 0 .5-.5zm-7 8V7H2v7.5a.5.5 0 0 0 .5.5z"/>
    </symbol>

    <symbol id="x-eye" viewBox="0 0 16 16">
        <path d="M16 8s-3-5.5-8-5.5S0 8 0 8s3 5.5 8 5.5S16 8 16 8M1.173 8a13 13 0 0 1 1.66-2.043C4.12 4.668 5.88 3.5 8 3.5s3.879 1.168 5.168 2.457A13 13 0 0 1 14.828 8q-.086.13-.195.288c-.335.48-.83 1.12-1.465 1.755C11.879 11.332 10.119 12.5 8 12.5s-3.879-1.168-5.168-2.457A13 13 0 0 1 1.172 8z"/>
        <path d="M8 5.5a2.5 2.5 0 1 0 0 5 2.5 2.5 0 0 0 0-5M4.5 8a3.5 3.5 0 1 1 7 0 3.5 3.5 0 0 1-7 0"/>
    </symbol>

    <symbol id="x-controller" viewBox="0 0 16 16">
        <path d="M11.5 6.027a.5.5 0 1 1-1 0 .5.5 0 0 1 1 0m-1.5 1.5a.5.5 0 1 0 0-1 .5.5 0 0 0 0 1m2.5-.5a.5.5 0 1 1-1 0 .5.5 0 0 1 1 0m-1.5 1.5a.5.5 0 1 0 0-1 .5.5 0 0 0 0 1m-6.5-3h1v1h1v1h-1v1h-1v-1h-1v-1h1z"/>
        <path d="M3.051 3.26a.5.5 0 0 1 .354-.613l1.932-.518a.5.5 0 0 1 .62.39c.655-.079 1.35-.117 2.043-.117.72 0 1.443.041 2.12.126a.5.5 0 0 1 .622-.399l1.932.518a.5.5 0 0 1 .306.729q.211.136.373.297c.408.408.78 1.05 1.095 1.772.32.733.599 1.591.805 2.466s.34 1.78.364 2.606c.024.816-.059 1.602-.328 2.21a1.42 1.42 0 0 1-1.445.83c-.636-.067-1.115-.394-1.513-.773-.245-.232-.496-.526-.739-.808-.126-.148-.25-.292-.368-.423-.728-.804-1.597-1.527-3.224-1.527s-2.496.723-3.224 1.527c-.119.131-.242.275-.368.423-.243.282-.494.575-.739.808-.398.38-.877.706-1.513.773a1.42 1.42 0 0 1-1.445-.83c-.27-.608-.352-1.395-.329-2.21.024-.826.16-1.73.365-2.606.206-.875.486-1.733.805-2.466.315-.722.687-1.364 1.094-1.772a2.3 2.3 0 0 1 .433-.335l-.028-.079zm2.036.412c-.877.185-1.469.443-1.733.708-.276.276-.587.783-.885 1.465a14 14 0 0 0-.748 2.295 12.4 12.4 0 0 0-.339 2.406c-.022.755.062 1.368.243 1.776a.42.42 0 0 0 .426.24c.327-.034.61-.199.929-.502.212-.202.4-.423.615-.674.133-.156.276-.323.44-.504C4.861 9.969 5.978 9.027 8 9.027s3.139.942 3.965 1.855c.164.181.307.348.44.504.214.251.403.472.615.674.318.303.601.468.929.503a.42.42 0 0 0 .426-.241c.18-.408.265-1.02.243-1.776a12.4 12.4 0 0 0-.339-2.406 14 14 0 0 0-.748-2.295c-.298-.682-.61-1.19-.885-1.465-.264-.265-.856-.523-1.733-.708-.85-.179-1.877-.27-2.913-.27s-2.063.091-2.913.27"/>
    </symbol>

    <symbol id="x-delete" viewBox="0 0 16 16">
        <path d="M2.5 1a1 1 0 0 0-1 1v1a1 1 0 0 0 1 1H3v9a2 2 0 0 0 2 2h6a2 2 0 0 0 2-2V4h.5a1 1 0 0 0 1-1V2a1 1 0 0 0-1-1H10a1 1 0 0 0-1-1H7a1 1 0 0 0-1 1zm3 4a.5.5 0 0 1 .5.5v7a.5.5 0 0 1-1 0v-7a.5.5 0 0 1 .5-.5M8 5a.5.5 0 0 1 .5.5v7a.5.5 0 0 1-1 0v-7A.5.5 0 0 1 8 5m3 .5v7a.5.5 0 0 1-1 0v-7a.5.5 0 0 1 1 0"/>
    </symbol>
</svg>
